# xmcd
#
# Track frame offsets:
#	150
#	19148
#	35608
#	51960
#	73280
#	92737
#	112208
#	132234
#	151096
#	171916
#	192507
#	208859
#	226723
#	247260
#	268715
#	284014
#	303309
#	324232
#	344796
#
# Disc length: 4787 seconds
#
# Revision: 1
# Processed by: cddbd v1.4PL0 Copyright (c) Steve Scherf et al.
# Submitted via: EasyCDDAExtractor 5.0.6
#
DISCID=2b12b113
DTITLE=周蕙 - 盗版
DYEAR=1900
DGENRE=
TTITLE0=自由呼吸
TTITLE1=守候孤单
TTITLE2=八月的月亮
TTITLE3=请你拥抱我
TTITLE4=终点
TTITLE5=只能作朋友
TTITLE6=别对我太好
TTITLE7=瞬间
TTITLE8=提问
TTITLE9=敏感
TTITLE10=我很快乐
TTITLE11=需要勇气
TTITLE12=给我一个吻
TTITLE13=话题
TTITLE14=空白
TTITLE15=好想好好爱你
TTITLE16=相遇太早
TTITLE17=风铃
TTITLE18=叉烧包
EXTD=
EXTT0=
EXTT1=
EXTT2=
EXTT3=
EXTT4=
EXTT5=
EXTT6=
EXTT7=
EXTT8=
EXTT9=
EXTT10=
EXTT11=
EXTT12=
EXTT13=
EXTT14=
EXTT15=
EXTT16=
EXTT17=
EXTT18=
PLAYORDER=
